<svg width="16" height="16" viewBox="0 0 16 16" fill="none" xmlns="http://www.w3.org/2000/svg">
<path d="M8.00016 14.6663C4.31826 14.6663 1.3335 11.6815 1.3335 7.99967C1.3335 4.31777 4.31826 1.33301 8.00016 1.33301C11.682 1.33301 14.6668 4.31777 14.6668 7.99967C14.6668 11.6815 11.682 14.6663 8.00016 14.6663ZM8.00016 13.333C10.9457 13.333 13.3335 10.9452 13.3335 7.99967C13.3335 5.05415 10.9457 2.66634 8.00016 2.66634C5.05464 2.66634 2.66683 5.05415 2.66683 7.99967C2.66683 10.9452 5.05464 13.333 8.00016 13.333ZM5.3335 8.66634H10.6668C10.6668 10.1391 9.4729 11.333 8.00016 11.333C6.5274 11.333 5.3335 10.1391 5.3335 8.66634ZM5.3335 7.33301C4.78121 7.33301 4.3335 6.88527 4.3335 6.33301C4.3335 5.78072 4.78121 5.33301 5.3335 5.33301C5.88578 5.33301 6.3335 5.78072 6.3335 6.33301C6.3335 6.88527 5.88578 7.33301 5.3335 7.33301ZM10.6668 7.33301C10.1146 7.33301 9.66683 6.88527 9.66683 6.33301C9.66683 5.78072 10.1146 5.33301 10.6668 5.33301C11.2191 5.33301 11.6668 5.78072 11.6668 6.33301C11.6668 6.88527 11.2191 7.33301 10.6668 7.33301Z" fill="#131920" fill-opacity="0.7"/>
</svg>
