<svg width="244" height="54" viewBox="0 0 244 54" fill="none" xmlns="http://www.w3.org/2000/svg">
<rect x="0.5" y="0.5" width="243" height="53" rx="26.5" fill="#FAFAFA"/>
<rect x="0.5" y="0.5" width="243" height="53" rx="26.5" stroke="#F5F5F5"/>
<rect x="6" y="6" width="116" height="42" rx="21" fill="#010101"/>
<g clip-path="url(#clip0_24_544)">
<path d="M64.9999 31.9997C62.2385 31.9997 59.9999 29.7611 59.9999 26.9997C59.9999 24.2382 62.2385 21.9997 64.9999 21.9997C67.7613 21.9997 69.9999 24.2382 69.9999 26.9997C69.9999 29.7611 67.7613 31.9997 64.9999 31.9997ZM64.9999 30.333C66.8408 30.333 68.3333 28.8406 68.3333 26.9997C68.3333 25.1587 66.8408 23.6663 64.9999 23.6663C63.159 23.6663 61.6666 25.1587 61.6666 26.9997C61.6666 28.8406 63.159 30.333 64.9999 30.333ZM64.1666 17.833H65.8333V20.333H64.1666V17.833ZM64.1666 33.6663H65.8333V36.1663H64.1666V33.6663ZM57.9289 21.1071L59.1074 19.9286L60.8751 21.6964L59.6966 22.8749L57.9289 21.1071ZM69.1247 32.303L70.3033 31.1244L72.071 32.8923L70.8925 34.0708L69.1247 32.303ZM70.8925 19.9286L72.071 21.1071L70.3033 22.8749L69.1247 21.6964L70.8925 19.9286ZM59.6966 31.1244L60.8751 32.303L59.1074 34.0708L57.9289 32.8923L59.6966 31.1244ZM74.1666 26.1663V27.833H71.6666V26.1663H74.1666ZM58.3333 26.1663V27.833H55.8333V26.1663H58.3333Z" fill="white"/>
</g>
<path d="M179.333 22.8337C179.333 26.0553 181.945 28.667 185.167 28.667C186.799 28.667 188.274 27.9967 189.333 26.9166C189.333 26.9445 189.333 26.9724 189.333 27.0003C189.333 31.6027 185.602 35.3337 181 35.3337C176.398 35.3337 172.667 31.6027 172.667 27.0003C172.667 22.398 176.398 18.667 181 18.667C181.028 18.667 181.056 18.667 181.084 18.6674C180.004 19.7261 179.333 21.2016 179.333 22.8337ZM174.333 27.0003C174.333 30.6822 177.318 33.667 181 33.667C183.549 33.667 185.763 32.2369 186.885 30.1354C186.329 30.2659 185.753 30.3337 185.167 30.3337C181.025 30.3337 177.667 26.9758 177.667 22.8337C177.667 22.2474 177.735 21.6716 177.865 21.1153C175.764 22.2372 174.333 24.4517 174.333 27.0003Z" fill="black"/>
<defs>
<clipPath id="clip0_24_544">
<rect width="20" height="20" fill="white" transform="translate(55 17)"/>
</clipPath>
</defs>
</svg>
