<svg width="92" height="48" viewBox="0 0 92 48" fill="none" xmlns="http://www.w3.org/2000/svg">
<rect x="0.5" y="0.5" width="91" height="47" rx="23.5" fill="#FAFAFA"/>
<rect x="0.5" y="0.5" width="91" height="47" rx="23.5" stroke="#F5F5F5"/>
<rect x="4" y="4" width="40" height="40" rx="20" fill="#7433FF"/>
<path d="M24.8333 22.3333V25.6667H29.8333V22.3333H24.8333ZM23.1667 22.3333H18.1667V25.6667H23.1667V22.3333ZM24.8333 29.8333H29.8333V27.3333H24.8333V29.8333ZM23.1667 29.8333V27.3333H18.1667V29.8333H23.1667ZM24.8333 18.1667V20.6667H29.8333V18.1667H24.8333ZM23.1667 18.1667H18.1667V20.6667H23.1667V18.1667ZM17.3333 16.5H30.6667C31.1269 16.5 31.5 16.8731 31.5 17.3333V30.6667C31.5 31.1269 31.1269 31.5 30.6667 31.5H17.3333C16.8731 31.5 16.5 31.1269 16.5 30.6667V17.3333C16.5 16.8731 16.8731 16.5 17.3333 16.5Z" fill="white"/>
<rect x="48" y="4" width="40" height="40" rx="20" fill="#FAFAFA"/>
<path d="M64.6667 17.3337H75.5V19.0003H64.6667V17.3337ZM61.75 19.417C61.0596 19.417 60.5 18.8574 60.5 18.167C60.5 17.4766 61.0596 16.917 61.75 16.917C62.4404 16.917 63 17.4766 63 18.167C63 18.8574 62.4404 19.417 61.75 19.417ZM61.75 25.2503C61.0596 25.2503 60.5 24.6907 60.5 24.0003C60.5 23.31 61.0596 22.7503 61.75 22.7503C62.4404 22.7503 63 23.31 63 24.0003C63 24.6907 62.4404 25.2503 61.75 25.2503ZM61.75 31.0003C61.0596 31.0003 60.5 30.4407 60.5 29.7503C60.5 29.06 61.0596 28.5003 61.75 28.5003C62.4404 28.5003 63 29.06 63 29.7503C63 30.4407 62.4404 31.0003 61.75 31.0003ZM64.6667 23.167H75.5V24.8337H64.6667V23.167ZM64.6667 29.0003H75.5V30.667H64.6667V29.0003Z" fill="#131920"/>
</svg>
