<svg width="20" height="20" viewBox="0 0 20 20" fill="none" xmlns="http://www.w3.org/2000/svg">
<path d="M13.3333 3.33301C13.7935 3.33301 14.1666 3.70611 14.1666 4.16634V7.66634L18.511 4.62527C18.6995 4.4933 18.9593 4.53915 19.0913 4.72767C19.1403 4.79771 19.1666 4.88112 19.1666 4.96662V15.0328C19.1666 15.2628 18.98 15.4494 18.7499 15.4494C18.6644 15.4494 18.581 15.4231 18.511 15.3741L14.1666 12.333V15.833C14.1666 16.2933 13.7935 16.6663 13.3333 16.6663H1.66659C1.20635 16.6663 0.833252 16.2933 0.833252 15.833V4.16634C0.833252 3.70611 1.20635 3.33301 1.66659 3.33301H13.3333ZM12.4999 4.99967H2.49992V14.9997H12.4999V4.99967ZM6.16659 7.3569C6.22998 7.3569 6.29206 7.37497 6.34554 7.40901L9.97467 9.71842C10.13 9.81726 10.1758 10.0233 10.0769 10.1787C10.0508 10.2198 10.0158 10.2547 9.97467 10.2809L6.34554 12.5903C6.19023 12.6892 5.9842 12.6434 5.88537 12.4881C5.85133 12.4346 5.83325 12.3725 5.83325 12.3091V7.69023C5.83325 7.50614 5.98249 7.3569 6.16659 7.3569ZM17.4999 7.36743L14.1666 9.70051V10.2988L17.4999 12.6319V7.36743Z" fill="white"/>
</svg>
