<svg width="26" height="20" viewBox="0 0 26 20" fill="none" xmlns="http://www.w3.org/2000/svg">
<path d="M0.764706 9.94118C0.764706 6.72911 0.764706 5.12308 1.37087 3.89623C1.90407 2.81707 2.75487 1.93968 3.80134 1.38982C4.99101 0.764706 6.54837 0.764706 9.6631 0.764706C12.7778 0.764706 14.3352 0.764706 15.5249 1.38982C16.5713 1.93968 17.4221 2.81707 17.9553 3.89623C18.1233 4.23615 18.2447 4.60517 18.3325 5.0294C18.5615 6.13632 18.5615 7.61906 18.5615 9.94118C18.5615 12.2629 18.5615 13.7455 18.3326 14.8523C18.2448 15.2768 18.1234 15.646 17.9553 15.9861C17.4221 17.0653 16.5713 17.9427 15.5249 18.4925C14.3352 19.1176 12.7778 19.1176 9.6631 19.1176C6.54837 19.1176 4.99101 19.1176 3.80134 18.4925C2.75487 17.9427 1.90407 17.0653 1.37087 15.9861C0.764706 14.7593 0.764706 13.1532 0.764706 9.94118Z" fill="white"/>
<path d="M18.3325 5.0294C18.5615 6.13632 18.5615 7.61906 18.5615 9.94118C18.5615 12.2629 18.5615 13.7455 18.3326 14.8523M18.3325 5.0294C18.2447 4.60517 18.1233 4.23615 17.9553 3.89623C17.4221 2.81707 16.5713 1.93968 15.5249 1.38982C14.3352 0.764706 12.7778 0.764706 9.6631 0.764706C6.54837 0.764706 4.99101 0.764706 3.80134 1.38982C2.75487 1.93968 1.90407 2.81707 1.37087 3.89623C0.764706 5.12308 0.764706 6.72911 0.764706 9.94118C0.764706 13.1532 0.764706 14.7593 1.37087 15.9861C1.90407 17.0653 2.75487 17.9427 3.80134 18.4925C4.99101 19.1176 6.54837 19.1176 9.6631 19.1176C12.7778 19.1176 14.3352 19.1176 15.5249 18.4925C16.5713 17.9427 17.4221 17.0653 17.9553 15.9861C18.1234 15.646 18.2448 15.2768 18.3326 14.8523M18.3325 5.0294L18.5615 4.91908L19.0046 4.7194C21.8163 3.4524 23.2222 2.81889 24.2288 3.4981C25.2353 4.1773 25.2353 5.75946 25.2353 8.92378V10.9586C25.2353 14.1229 25.2353 15.7051 24.2288 16.3843C23.2222 17.0635 21.8163 16.43 19.0046 15.163L18.5615 14.9633L18.3326 14.8523M6.64773 9.36765H8.22928C9.02116 9.36765 9.6631 8.7257 9.6631 7.93382C9.6631 7.14194 9.02116 6.5 8.22928 6.5H6.64773C5.85585 6.5 5.2139 7.14194 5.2139 7.93382C5.2139 8.7257 5.85585 9.36765 6.64773 9.36765Z" stroke="#7433FF" stroke-width="1.5"/>
</svg>
