<svg width="16" height="12" viewBox="0 0 16 12" fill="none" xmlns="http://www.w3.org/2000/svg">
<path d="M0.5 6C0.5 4.07482 0.5 3.11223 0.871569 2.37691C1.19841 1.7301 1.71993 1.20423 2.3614 0.874665C3.09064 0.5 4.04528 0.5 5.95455 0.5C7.86382 0.5 8.81845 0.5 9.5477 0.874665C10.1892 1.20423 10.7107 1.7301 11.0375 2.37691C11.1405 2.58064 11.2149 2.80182 11.2687 3.05608C11.4091 3.71952 11.4091 4.60822 11.4091 6C11.4091 7.39152 11.4091 8.28014 11.2688 8.94354C11.215 9.19796 11.1405 9.41926 11.0375 9.62309C10.7107 10.2699 10.1892 10.7958 9.5477 11.1253C8.81845 11.5 7.86382 11.5 5.95455 11.5C4.04528 11.5 3.09064 11.5 2.3614 11.1253C1.71993 10.7958 1.19841 10.2699 0.871569 9.62309C0.5 8.88777 0.5 7.92518 0.5 6Z" fill="white"/>
<path d="M11.2687 3.05608C11.4091 3.71952 11.4091 4.60822 11.4091 6C11.4091 7.39152 11.4091 8.28014 11.2688 8.94354M11.2687 3.05608C11.2149 2.80182 11.1405 2.58064 11.0375 2.37691C10.7107 1.7301 10.1892 1.20423 9.5477 0.874665C8.81845 0.5 7.86382 0.5 5.95455 0.5C4.04528 0.5 3.09064 0.5 2.3614 0.874665C1.71993 1.20423 1.19841 1.7301 0.871569 2.37691C0.5 3.11223 0.5 4.07482 0.5 6C0.5 7.92518 0.5 8.88777 0.871569 9.62309C1.19841 10.2699 1.71993 10.7958 2.3614 11.1253C3.09064 11.5 4.04528 11.5 5.95455 11.5C7.86382 11.5 8.81845 11.5 9.5477 11.1253C10.1892 10.7958 10.7107 10.2699 11.0375 9.62309C11.1405 9.41926 11.215 9.19796 11.2688 8.94354M11.2687 3.05608L11.4091 2.98996L11.6807 2.87028C13.4042 2.11089 14.266 1.7312 14.883 2.13828C15.5 2.54537 15.5 3.49365 15.5 5.39021V6.60979C15.5 8.50635 15.5 9.45463 14.883 9.86172C14.266 10.2688 13.4042 9.88911 11.6807 9.12972L11.4091 9.01004L11.2688 8.94354M4.08665 5.65625H5.09517C5.56979 5.65625 5.95455 5.27149 5.95455 4.79688C5.95455 4.32226 5.56979 3.9375 5.09517 3.9375H4.08665C3.61203 3.9375 3.22727 4.32226 3.22727 4.79688C3.22727 5.27149 3.61203 5.65625 4.08665 5.65625Z" stroke="#7433FF"/>
</svg>
