<svg width="86" height="33" viewBox="0 0 86 33" fill="none" xmlns="http://www.w3.org/2000/svg">
<g filter="url(#filter0_d_24_626)">
<path d="M6.5 18.5V22.5H78.5L69.8466 10.4813L69.8465 10.4813C67.7416 7.55774 66.6891 6.09595 65.3366 5.0403C64.1388 4.10545 62.7744 3.40657 61.3159 2.9808C59.6689 2.5 57.8677 2.5 54.2651 2.5H22.5C16.8995 2.5 14.0992 2.5 11.9601 3.58993C10.0785 4.54867 8.54867 6.07847 7.58993 7.96009C6.5 10.0992 6.5 12.8995 6.5 18.5Z" fill="url(#paint0_linear_24_626)" shape-rendering="crispEdges"/>
<path d="M6.5 18.5V22.5H78.5L69.8466 10.4813L69.8465 10.4813C67.7416 7.55774 66.6891 6.09595 65.3366 5.0403C64.1388 4.10545 62.7744 3.40657 61.3159 2.9808C59.6689 2.5 57.8677 2.5 54.2651 2.5H22.5C16.8995 2.5 14.0992 2.5 11.9601 3.58993C10.0785 4.54867 8.54867 6.07847 7.58993 7.96009C6.5 10.0992 6.5 12.8995 6.5 18.5Z" stroke="#E3E3E8" shape-rendering="crispEdges"/>
</g>
<defs>
<filter id="filter0_d_24_626" x="0" y="0" width="85.4761" height="33" filterUnits="userSpaceOnUse" color-interpolation-filters="sRGB">
<feFlood flood-opacity="0" result="BackgroundImageFix"/>
<feColorMatrix in="SourceAlpha" type="matrix" values="0 0 0 0 0 0 0 0 0 0 0 0 0 0 0 0 0 0 127 0" result="hardAlpha"/>
<feOffset dy="4"/>
<feGaussianBlur stdDeviation="3"/>
<feComposite in2="hardAlpha" operator="out"/>
<feColorMatrix type="matrix" values="0 0 0 0 0.456 0 0 0 0 0.2 0 0 0 0 1 0 0 0 0.03 0"/>
<feBlend mode="normal" in2="BackgroundImageFix" result="effect1_dropShadow_24_626"/>
<feBlend mode="normal" in="SourceGraphic" in2="effect1_dropShadow_24_626" result="shape"/>
</filter>
<linearGradient id="paint0_linear_24_626" x1="42.5" y1="-5" x2="42.5" y2="42" gradientUnits="userSpaceOnUse">
<stop stop-color="#DDCCFF"/>
<stop offset="1" stop-color="#F1F1F4" stop-opacity="0"/>
</linearGradient>
</defs>
</svg>
