<svg width="20" height="20" viewBox="0 0 20 20" fill="none" xmlns="http://www.w3.org/2000/svg">
<path d="M10.8333 6.01738L8.00227 8.33366H4.99992V11.667H8.00227L10.8333 13.9832V6.01738ZM7.40733 13.3337H4.16659C3.70635 13.3337 3.33325 12.9606 3.33325 12.5003V7.5003C3.33325 7.04006 3.70635 6.66697 4.16659 6.66697H7.40733L11.8194 3.05709C11.9975 2.91137 12.26 2.93762 12.4058 3.11572C12.4667 3.19016 12.4999 3.28339 12.4999 3.37957V16.621C12.4999 16.8512 12.3133 17.0377 12.0833 17.0377C11.9871 17.0377 11.8938 17.0044 11.8194 16.9435L7.40733 13.3337ZM15.7192 13.8262L14.5342 12.6412C15.3243 12.0316 15.8333 11.0754 15.8333 10.0003C15.8333 8.80833 15.2077 7.76254 14.2668 7.17329L15.4657 5.97446C16.6996 6.88496 17.4999 8.34916 17.4999 10.0003C17.4999 11.5354 16.8081 12.909 15.7192 13.8262Z" fill="#94A1B3"/>
</svg>
